<?xml version="1.0" encoding="UTF-8" standalone="no"?>
<!DOCTYPE svg PUBLIC "-//W3C//DTD SVG 1.1//EN" "http://www.w3.org/Graphics/SVG/1.1/DTD/svg11.dtd">
<svg width="100%" height="100%" viewBox="0 0 40 40" version="1.1" xmlns="http://www.w3.org/2000/svg" xmlns:xlink="http://www.w3.org/1999/xlink" xml:space="preserve" xmlns:serif="http://www.serif.com/" style="fill-rule:evenodd;clip-rule:evenodd;stroke-linejoin:round;stroke-miterlimit:2;">
    <g id="JS" transform="matrix(0.0635448,0,0,0.0635448,-5.41791,-5.41791)">
        <g id="J" transform="matrix(1,0,0,1.39335,31.8183,-118.402)">
            <path d="M294.613,250.505L293.266,407.481C284.206,376.19 251.599,374.655 211.448,377.851L212.795,492.929L400,492.929L400,250.505L294.613,250.505Z" style="fill:rgb(255,139,0);"/>
        </g>
        <g id="S" transform="matrix(-0.772222,0,0,1.006,982.664,72.796)">
            <path d="M485.022,306.397L416.835,306.397L416.835,493.603L659.259,493.603L659.259,388.215L538.047,388.215C524.056,355.322 546.466,346.071 580.094,344.108L659.259,344.108L659.259,156.902L416.835,156.902L416.835,262.29L538.047,262.29C537.827,290.391 525.509,309.206 485.022,306.397Z" style="fill:rgb(255,139,0);"/>
        </g>
        <g id="dot" transform="matrix(1,0,0,1,31.8183,75.7576)">
            <circle cx="139.057" cy="461.279" r="31.65" style="fill:rgb(0,144,255);"/>
        </g>
    </g>
</svg>
