<?xml version="1.0" encoding="UTF-8" standalone="no"?>
<!DOCTYPE svg PUBLIC "-//W3C//DTD SVG 1.1//EN" "http://www.w3.org/Graphics/SVG/1.1/DTD/svg11.dtd">
<svg width="100%" height="100%" viewBox="0 0 40 40" version="1.1" xmlns="http://www.w3.org/2000/svg" xmlns:xlink="http://www.w3.org/1999/xlink" xml:space="preserve" xmlns:serif="http://www.serif.com/" style="fill-rule:evenodd;clip-rule:evenodd;stroke-linejoin:round;stroke-miterlimit:2;">
    <g id="JuggleCode" transform="matrix(0.05,0,0,0.05,0,0)">
        <g id="L" transform="matrix(-1,0,0,1,800,0)">
            <path d="M148.177,122.559L148.177,272.054L80.303,272.054L80.303,364.983L267.508,364.983L267.508,122.559L148.177,122.559Z" style="fill:rgb(0,152,255);"/>
        </g>
        <path id="G" d="M493.603,193.939L367.34,203.367L368.687,315.151L437.374,331.313L461.616,282.828L400,282.828L400,243.771L493.603,243.771L493.603,364.983L306.397,364.983L306.397,122.559L493.603,122.559L493.603,193.939Z" style="fill:rgb(255,86,14);"/>
        <path id="J" d="M148.177,122.559L148.177,272.054L80.303,243.771L80.303,364.983L267.508,364.983L267.508,122.559L148.177,122.559Z" style="fill:rgb(255,139,0);"/>
        <g id="C" transform="matrix(0.725132,0,0,1,-141.876,0)">
            <path d="M493.603,573.837L412.326,573.837L412.326,468.587L493.603,468.587M493.603,400L306.397,400L306.397,642.424L493.603,642.424L493.603,400Z" style="fill:rgb(255,135,0);"/>
        </g>
        <g id="O" transform="matrix(0.725132,0,0,1,26.0062,0)">
            <path d="M493.603,400L306.397,400L306.397,642.424L493.603,642.424L493.603,400ZM439.101,473.277L360.899,473.277L360.899,569.147L439.101,569.147L439.101,473.277Z" style="fill:rgb(0,152,255);"/>
        </g>
        <g id="D" transform="matrix(0.725132,0,0,1,29.9398,1.13687e-13)">
            <path d="M532.492,400L677.8,428.481L719.697,642.424L532.492,642.424L532.492,400ZM574.747,468.587L574.747,573.837L646.832,573.837L613.768,468.587L574.747,468.587Z" style="fill:rgb(255,161,0);"/>
        </g>
        <path id="E" d="M719.145,467.605L719.697,400L583.948,400L583.948,642.424L719.697,642.424L719.697,575.163L651.823,575.163L651.823,521.212L719.697,521.212L719.145,505.315L651.271,505.315L651.271,467.605L719.145,467.605Z" style="fill:rgb(0,168,193);"/>
    </g>
</svg>
